<?xml version="1.0" encoding="utf-8"?>
<!-- Svg Vector Icons : http://www.onlinewebfonts.com/icon -->
<!DOCTYPE svg PUBLIC "-//W3C//DTD SVG 1.1//EN" "http://www.w3.org/Graphics/SVG/1.1/DTD/svg11.dtd">
<svg version="1.1" xmlns="http://www.w3.org/2000/svg" xmlns:xlink="http://www.w3.org/1999/xlink" x="0px" y="0px" viewBox="0 0 1000 1000" enable-background="new 0 0 1000 1000" xml:space="preserve">
<metadata> Svg Vector Icons : http://www.onlinewebfonts.com/icon </metadata>
<g><path d="M990,908.6L728.1,649.1c49.7-66.4,79.1-148.9,79.1-238.3c0-220.1-178.5-398.6-398.6-398.6C188.4,12.2,10,190.6,10,410.7c0,220.1,178.4,398.6,398.6,398.6c89.7,0,172.6-29.7,239.2-79.7l260.6,258.2L990,908.6L990,908.6z M76.7,410.7c0-183.3,148.6-331.8,331.9-331.8c183.2,0,331.8,148.6,331.8,331.8c0,183.3-148.6,331.8-331.8,331.8C225.3,742.6,76.7,594,76.7,410.7L76.7,410.7z"/></g>
</svg>